<svg xmlns="http://www.w3.org/2000/svg" width="24" height="24" fill="none" viewBox="0 0 24 24">
  <g clip-path="url(#clip0)">
    <path fill="#fff" d="M15.91 13.34l2.636-4.026-.454-.406-3.673 3.099a1.994 1.994 0 00-1.894.618 2 2 0 102.983 2.665 1.99 1.99 0 00.402-1.95zM12 2.694V0h4v2.694c-1.439-.243-2.592-.238-4 0zm8.851 2.064l1.407-1.407 1.414 1.414-1.321 1.321a12.052 12.052 0 00-1.5-1.328zM2 9h8v2H2V9zm-2 4h8v2H0v-2zm3 4h7v2H3v-2zm21-3c0 5.523-4.477 10-10 10-2.79 0-5.3-1.155-7.111-3h3.28A7.87 7.87 0 0014 22c4.411 0 8-3.589 8-8s-3.589-8-8-8a7.87 7.87 0 00-3.831 1h-3.28C8.7 5.155 11.21 4 14 4c5.523 0 10 4.477 10 10z"/>
  </g>
  <defs>
    <clipPath id="clip0">
      <path fill="#fff" d="M0 0h24v24H0z"/>
    </clipPath>
  </defs>
</svg>
