<svg xmlns="http://www.w3.org/2000/svg" width="74" height="74" fill="none" viewBox="0 0 74 74">
  <g clip-path="url(#clip0)">
    <path fill="url(#paint0_linear)" fill-rule="evenodd" d="M36.932 52.417c-2.923.034-4.714 2.762-6.099 4.958a857.265 857.265 0 01-8.97 13.964c-.961 1.465-2.003 2.649-3.758 2.661-1.757.012-3.243-2.112-2.395-3.9 2.253-4.746 12.04-21.821 12.04-36.183 0-4.974-2.645-6.167-6.167-6.167H9.25a3.084 3.084 0 010-6.167h55.5a3.084 3.084 0 010 6.167H52.417c-3.518 0-6.167 1.193-6.167 6.167 0 14.362 9.79 31.437 12.044 36.183.847 1.788-.639 3.912-2.396 3.9-1.755-.012-2.8-1.196-3.759-2.66a877.423 877.423 0 01-8.972-13.965c-1.39-2.211-3.2-4.968-6.167-4.958h-.068zM37 0c5.11 0 9.25 4.144 9.25 9.25S42.11 18.5 37 18.5c-5.103 0-9.25-4.144-9.25-9.25S31.897 0 37 0z" clip-rule="evenodd"/>
  </g>
  <defs>
    <linearGradient id="paint0_linear" x1="37" x2="37" y1="0" y2="74" gradientUnits="userSpaceOnUse">
      <stop stop-color="#0D2C7B"/>
      <stop offset="1" stop-color="#2B66FF"/>
    </linearGradient>
    <clipPath id="clip0">
      <path fill="#fff" d="M0 0h74v74H0z"/>
    </clipPath>
  </defs>
</svg>
