<svg xmlns="http://www.w3.org/2000/svg" width="275" height="196" fill="none" viewBox="0 0 275 196">
  <g clip-path="url(#clip0)">
    <path fill="#F1F1F1" d="M251.105 176.319c2.412 4.262.367 18.656.367 18.656s-13.393-5.667-15.805-9.927a8.866 8.866 0 0110.09-12.9 8.864 8.864 0 015.348 4.171z"/>
    <path fill="#fff" d="M251.666 194.956l-.284.06c-2.741-13.015-12.311-21.84-12.407-21.928l.196-.215c.097.088 9.735 8.974 12.495 22.083z"/>
    <path fill="#F1F1F1" d="M273.02 181.172c-3.273 5.935-21.725 13.974-21.725 13.974s-3.042-19.889.229-25.822a12.276 12.276 0 0122.539 2.516 12.265 12.265 0 01-1.043 9.332z"/>
    <path fill="#fff" d="M251.458 195.362l-.277-.292c13.352-12.676 16.809-30.355 16.842-30.532l.396.074c-.034.179-3.512 17.982-16.961 30.75z"/>
    <path fill="#3F3D56" d="M64.653 136.233a25.268 25.268 0 01-6.259-.809l-.402-.112-.374-.187c-13.511-6.771-24.91-15.716-33.88-26.584A100.636 100.636 0 016.634 78.177 116.824 116.824 0 01.02 37.01c.006-.294.01-.52.01-.677 0-6.81 3.782-12.784 9.634-15.222 4.479-1.865 45.143-18.561 48.08-19.767C63.28-1.43 69.183.884 70.128 1.289c2.119.866 39.71 16.235 47.834 20.102 8.372 3.985 10.606 11.144 10.606 14.746 0 16.307-2.826 31.547-8.398 45.298a104.89 104.89 0 01-18.856 30.377c-15.393 17.315-30.79 23.454-30.939 23.508a16.82 16.82 0 01-5.721.913zm-3.621-8.965c1.335.299 4.408.747 6.41.017 2.546-.928 15.433-7.608 27.475-21.155 16.639-18.716 25.081-42.245 25.094-69.933-.03-.56-.429-4.561-5.729-7.084C106.316 25.321 67.243 9.35 66.849 9.19l-.108-.045c-.819-.343-3.425-1.066-5.22-.125l-.36.168c-.436.179-43.602 17.9-48.205 19.818-3.22 1.341-4.368 4.664-4.368 7.327 0 .194-.005.477-.012.843-.368 18.945 4.018 65.561 52.456 90.093z"/>
    <path fill="#215EFD" d="M59.536 5.23S15.978 23.115 11.31 25.059c-4.667 1.944-7 6.609-7 11.274 0 4.665-3.5 65.538 55.225 94.97 0 0 5.33 1.475 9.373 0 4.044-1.474 55.38-26.354 55.38-95.165 0 0 0-6.997-8.167-10.885-8.167-3.887-47.653-20.021-47.653-20.021s-4.85-2.138-8.933 0z"/>
    <path fill="#000" d="M64.203 19.226v95.399S20.256 93.479 20.645 37.887l43.558-18.66z" opacity=".1"/>
    <path fill="#fff" d="M64.776 87.79l-14-17.992 8.142-6.33 6.628 8.52 22.393-23.63 7.488 7.092-30.651 32.34z"/>
    <path fill="#CACACA" d="M274.664 196H146.745a.337.337 0 01-.336-.336.334.334 0 01.336-.335h127.919a.337.337 0 01.336.335.337.337 0 01-.336.336z"/>
    <path fill="#FFB8B8" d="M183.722 190.71l5.193-.001 2.47-20.02h-7.664l.001 20.021z"/>
    <path fill="#2F2E41" d="M182.398 189.015h10.226a6.515 6.515 0 016.517 6.514v.211l-16.743.001v-6.726z"/>
    <path fill="#FFB8B8" d="M201.181 190.71l5.193-.001 2.47-20.02h-7.664l.001 20.021z"/>
    <path fill="#2F2E41" d="M199.857 189.015h10.226a6.517 6.517 0 016.517 6.514v.211l-16.743.001v-6.726zM191.884 120.402l1.245 63.516-10.076-.625-6.99-40.456-2.208-27.584 18.029 5.149z"/>
    <path fill="#2F2E41" d="M209.176 109.737l1.412 75.188-11.751-.336-2.538-44.694-4.415-16.182-18.029-8.459 2.944-20.229 26.49-.367 5.887 15.079z"/>
    <path fill="#FFB8B8" d="M188.916 42.433c4.977 0 9.011-4.033 9.011-9.008 0-4.974-4.034-9.007-9.011-9.007-4.976 0-9.01 4.033-9.01 9.007 0 4.975 4.034 9.008 9.01 9.008z"/>
    <path fill="#CCC" d="M196.39 46.227l1.38 2.09 3.68 10.298-2.944 40.088-17.292.368-2.207-45.973 4.624-5.778 12.759-1.093z"/>
    <path fill="#2F2E41" d="M172.016 54.202l-2.944-.368s-.735.368-1.103 2.942c-.368 2.575-4.783 25.377-4.783 25.377l5.886 27.952 6.623-8.827-4.047-15.447 4.047-15.447-3.679-16.182zM209.544 53.834h2.208l5.519 29.79-5.151 23.171-5.151-8.46 1.471-9.194-.735-8.091-2.576-4.781 4.415-22.435zM194.241 33.425l-1.638-.41s-1.229-6.96-4.096-6.14c-2.867.818-10.24 1.637-10.24-1.638 0-3.276 6.963-6.142 11.059-5.732 4.096.41 9.327 1.768 10.649 7.779 2.12 9.636-4.373 12.07-4.373 12.07l.108-.35a5.468 5.468 0 00-1.469-5.579z"/>
    <path fill="#2F2E41" d="M169.44 53.834l11.774-4.781 2.759-2.023 8.279 36.594 3.863-37.697 15.269 7.907-5.151 25.01-.736 9.561 2.208 7.724s7.726 5.517 5.15 11.401c-2.575 5.885-5.518 6.252-5.518 6.252s-12.51-11.769-13.246-14.71c-.736-2.943-1.839-8.092-1.839-8.092s-6.255 23.538-13.613 23.17c-7.359-.368-7.359-8.091-7.359-8.091l1.84-8.091 2.943-8.46-1.472-13.975-5.151-21.7z"/>
  </g>
  <defs>
    <clipPath id="clip0">
      <path fill="#fff" d="M0 0h275v196H0z"/>
    </clipPath>
  </defs>
</svg>
